<svg xmlns="http://www.w3.org/2000/svg" width="47.384" height="47.384" viewBox="0 0 47.384 47.384"><defs><style>.a{fill:none;stroke:#3f2601;stroke-width:3px;}</style></defs><path class="a" d="M41.213,2.25H3.16A3.184,3.184,0,0,0,0,5.45V43.434a3.184,3.184,0,0,0,3.16,3.2H41.213a3.192,3.192,0,0,0,3.17-3.2V5.45A3.192,3.192,0,0,0,41.213,2.25Zm-27.8,38.043H6.836V19.112h6.588V40.293ZM10.125,16.219A3.814,3.814,0,1,1,13.939,12.4a3.816,3.816,0,0,1-3.814,3.814ZM38.073,40.293H31.495V29.99c0-2.457-.05-5.617-3.418-5.617-3.428,0-3.953,2.675-3.953,5.439V40.293H17.545V19.112h6.311V22h.089a6.929,6.929,0,0,1,6.232-3.418c6.658,0,7.9,4.389,7.9,10.1Z" transform="translate(1.5 -0.75)"/></svg>