<svg xmlns="http://www.w3.org/2000/svg" width="45.174" height="45.174" viewBox="0 0 45.174 45.174"><defs><style>.a{fill:#3d3e24;}</style></defs><path class="a" d="M22.587,0c-6.136,0-6.9.028-9.312.136a16.655,16.655,0,0,0-5.483,1.05,11.061,11.061,0,0,0-4,2.605,11.021,11.021,0,0,0-2.605,4,16.607,16.607,0,0,0-1.05,5.483C.023,15.685,0,16.451,0,22.587s.028,6.9.136,9.312a16.666,16.666,0,0,0,1.05,5.483,11.077,11.077,0,0,0,2.605,4,11.045,11.045,0,0,0,4,2.605,16.676,16.676,0,0,0,5.483,1.05c2.409.113,3.175.136,9.312.136s6.9-.028,9.312-.136a16.714,16.714,0,0,0,5.483-1.05,11.543,11.543,0,0,0,6.607-6.607,16.666,16.666,0,0,0,1.05-5.483c.113-2.409.136-3.175.136-9.312s-.028-6.9-.136-9.312a16.7,16.7,0,0,0-1.05-5.483,11.086,11.086,0,0,0-2.605-4,11.005,11.005,0,0,0-4-2.605A16.617,16.617,0,0,0,31.9.136C29.489.023,28.723,0,22.587,0Zm0,4.066c6.029,0,6.748.03,9.129.134a12.445,12.445,0,0,1,4.192.781A7.433,7.433,0,0,1,40.2,9.266a12.471,12.471,0,0,1,.777,4.192c.107,2.383.132,3.1.132,9.129s-.028,6.748-.139,9.129a12.711,12.711,0,0,1-.792,4.192,7.172,7.172,0,0,1-1.692,2.6,7.047,7.047,0,0,1-2.6,1.687,12.563,12.563,0,0,1-4.207.777c-2.4.107-3.1.132-9.146.132s-6.75-.028-9.146-.139a12.808,12.808,0,0,1-4.209-.792,7,7,0,0,1-2.6-1.692,6.858,6.858,0,0,1-1.694-2.6A12.819,12.819,0,0,1,4.1,31.677c-.085-2.372-.115-3.1-.115-9.118s.03-6.75.115-9.15a12.8,12.8,0,0,1,.791-4.2A6.7,6.7,0,0,1,6.58,6.6a6.681,6.681,0,0,1,2.6-1.69,12.5,12.5,0,0,1,4.181-.792c2.4-.085,3.106-.113,9.146-.113l.085.056Zm0,6.923a11.6,11.6,0,1,0,11.6,11.6A11.6,11.6,0,0,0,22.587,10.989Zm0,19.128a7.529,7.529,0,1,1,7.529-7.529A7.527,7.527,0,0,1,22.587,30.116ZM37.355,10.531a2.71,2.71,0,1,1-2.71-2.709A2.712,2.712,0,0,1,37.355,10.531Z"/></svg>