<svg xmlns="http://www.w3.org/2000/svg" width="63.878" height="45.778" viewBox="0 0 63.878 45.778"><defs><style>.a{fill:none;stroke:#3f2601;stroke-linecap:round;stroke-linejoin:round;stroke-width:3px;}</style></defs><g transform="translate(-1661.68 -181.906)"><path class="a" d="M61.1,12.7a7.692,7.692,0,0,0-5.368-5.534C50.975,6,31.938,6,31.938,6S12.9,6,8.142,7.273a7.692,7.692,0,0,0-5.368,5.534A80.244,80.244,0,0,0,1.5,27.444,80.244,80.244,0,0,0,2.774,42.193a7.692,7.692,0,0,0,5.368,5.313c4.759,1.273,23.8,1.273,23.8,1.273s19.037,0,23.8-1.273A7.692,7.692,0,0,0,61.1,41.971a80.244,80.244,0,0,0,1.273-14.527A80.243,80.243,0,0,0,61.1,12.7Z" transform="translate(1661.681 177.406)"/><path class="a" d="M14.625,30.816l15.91-9.048L14.625,12.72Z" transform="translate(1672.768 183.082)"/></g></svg>